<mxfile host="app.diagrams.net" modified="2021-07-25T18:02:09.458Z" agent="5.0 (Windows NT 10.0; Win64; x64) AppleWebKit/537.36 (KHTML, like Gecko) Chrome/91.0.4472.124 Safari/537.36" etag="yma70LCx6aSN_-MnTN6u" version="14.7.7" type="github">
  <diagram id="gqrAPQSGs6m91VuGfRIM" name="第 1 页">
    <mxGraphModel dx="2031" dy="1089" grid="1" gridSize="10" guides="1" tooltips="1" connect="1" arrows="1" fold="1" page="1" pageScale="1" pageWidth="2339" pageHeight="3300" math="0" shadow="0">
      <root>
        <mxCell id="0" />
        <mxCell id="1" parent="0" />
        <mxCell id="Wlz0abQoxIl_LB6TaBgo-8" style="edgeStyle=orthogonalEdgeStyle;rounded=0;orthogonalLoop=1;jettySize=auto;html=1;exitX=0.5;exitY=1;exitDx=0;exitDy=0;" parent="1" source="Wlz0abQoxIl_LB6TaBgo-2" target="Wlz0abQoxIl_LB6TaBgo-3" edge="1">
          <mxGeometry relative="1" as="geometry" />
        </mxCell>
        <mxCell id="Wlz0abQoxIl_LB6TaBgo-2" value="&lt;span style=&quot;font-size: 24px&quot;&gt;计算机网络&lt;/span&gt;" style="rounded=1;whiteSpace=wrap;html=1;" parent="1" vertex="1">
          <mxGeometry x="10" y="10" width="190" height="110" as="geometry" />
        </mxCell>
        <mxCell id="Wlz0abQoxIl_LB6TaBgo-3" value="" style="swimlane;childLayout=stackLayout;horizontal=1;fillColor=none;horizontalStack=1;resizeParent=1;resizeParentMax=0;resizeLast=0;collapsible=0;strokeColor=none;stackBorder=10;stackSpacing=-12;resizable=1;align=center;points=[];fontColor=#000000;" parent="1" vertex="1">
          <mxGeometry x="10" y="160" width="562" height="243" as="geometry" />
        </mxCell>
        <mxCell id="Wlz0abQoxIl_LB6TaBgo-4" value="阅读https:&#xa;//zhuanlan.zh&#xa;ihu.com&#xa;/p/142665708" style="shape=step;perimeter=stepPerimeter;fixedSize=1;points=[];whiteSpace=wrap;fontSize=20;fillColor=#ffe6cc;strokeColor=#d79b00;" parent="Wlz0abQoxIl_LB6TaBgo-3" vertex="1">
          <mxGeometry x="10" y="33" width="190" height="200" as="geometry" />
        </mxCell>
        <mxCell id="Wlz0abQoxIl_LB6TaBgo-5" value="python网络&#xa;编程第一二三章" style="shape=step;perimeter=stepPerimeter;fixedSize=1;points=[];fontSize=20;" parent="Wlz0abQoxIl_LB6TaBgo-3" vertex="1">
          <mxGeometry x="188" y="33" width="222" height="200" as="geometry" />
        </mxCell>
        <mxCell id="Wlz0abQoxIl_LB6TaBgo-6" value="阅读第&#xa;四到第七章" style="shape=step;perimeter=stepPerimeter;fixedSize=1;points=[];fontSize=20;" parent="Wlz0abQoxIl_LB6TaBgo-3" vertex="1">
          <mxGeometry x="398" y="33" width="154" height="200" as="geometry" />
        </mxCell>
        <mxCell id="Wlz0abQoxIl_LB6TaBgo-9" value="" style="swimlane;childLayout=stackLayout;horizontal=1;fillColor=none;horizontalStack=1;resizeParent=1;resizeParentMax=0;resizeLast=0;collapsible=0;strokeColor=none;stackBorder=10;stackSpacing=-12;resizable=1;align=center;points=[];fontColor=#000000;" parent="1" vertex="1">
          <mxGeometry x="540" y="160" width="210" height="243" as="geometry" />
        </mxCell>
        <mxCell id="Wlz0abQoxIl_LB6TaBgo-10" value="出一期实践视频" style="shape=step;perimeter=stepPerimeter;fixedSize=1;points=[];whiteSpace=wrap;fontSize=20;" parent="Wlz0abQoxIl_LB6TaBgo-9" vertex="1">
          <mxGeometry x="10" y="33" width="190" height="200" as="geometry" />
        </mxCell>
        <mxCell id="Wlz0abQoxIl_LB6TaBgo-14" value="" style="verticalLabelPosition=bottom;verticalAlign=top;html=1;shape=mxgraph.basic.rect;fillColor2=none;strokeWidth=1;size=20;indent=5;fontSize=20;fillColor=#ffe6cc;strokeColor=#d79b00;" parent="1" vertex="1">
          <mxGeometry x="900" y="30" width="90" height="30" as="geometry" />
        </mxCell>
        <mxCell id="Wlz0abQoxIl_LB6TaBgo-15" value="" style="verticalLabelPosition=bottom;verticalAlign=top;html=1;shape=mxgraph.basic.rect;fillColor2=none;strokeWidth=1;size=20;indent=5;fontSize=20;fillColor=#d5e8d4;strokeColor=#82b366;" parent="1" vertex="1">
          <mxGeometry x="900" y="90" width="90" height="30" as="geometry" />
        </mxCell>
        <mxCell id="Wlz0abQoxIl_LB6TaBgo-16" value="进行中" style="text;strokeColor=none;fillColor=none;html=1;fontSize=24;fontStyle=1;verticalAlign=middle;align=center;" parent="1" vertex="1">
          <mxGeometry x="1040" y="25" width="100" height="40" as="geometry" />
        </mxCell>
        <mxCell id="Wlz0abQoxIl_LB6TaBgo-17" value="已完成" style="text;strokeColor=none;fillColor=none;html=1;fontSize=24;fontStyle=1;verticalAlign=middle;align=center;" parent="1" vertex="1">
          <mxGeometry x="1040" y="80" width="100" height="40" as="geometry" />
        </mxCell>
        <mxCell id="Wlz0abQoxIl_LB6TaBgo-18" style="edgeStyle=orthogonalEdgeStyle;rounded=0;orthogonalLoop=1;jettySize=auto;html=1;exitX=0.5;exitY=1;exitDx=0;exitDy=0;" parent="1" source="Wlz0abQoxIl_LB6TaBgo-19" edge="1">
          <mxGeometry relative="1" as="geometry">
            <mxPoint x="291" y="1060" as="targetPoint" />
          </mxGeometry>
        </mxCell>
        <mxCell id="Wlz0abQoxIl_LB6TaBgo-19" value="&lt;font style=&quot;font-size: 24px&quot;&gt;并发概念的第一次探索&lt;/font&gt;" style="rounded=1;whiteSpace=wrap;html=1;fillColor=#d5e8d4;strokeColor=#82b366;" parent="1" vertex="1">
          <mxGeometry x="10" y="900" width="190" height="110" as="geometry" />
        </mxCell>
        <mxCell id="Wlz0abQoxIl_LB6TaBgo-20" value="阅读&lt;Python&#xa;并发编程&gt;的&#xa;第二章与第三章" style="shape=step;perimeter=stepPerimeter;fixedSize=1;points=[];whiteSpace=wrap;fontSize=20;fillColor=#d5e8d4;strokeColor=#82b366;" parent="1" vertex="1">
          <mxGeometry x="20" y="1083" width="190" height="200" as="geometry" />
        </mxCell>
        <mxCell id="Wlz0abQoxIl_LB6TaBgo-21" value="输出读书笔记" style="shape=step;perimeter=stepPerimeter;fixedSize=1;points=[];fontSize=20;fillColor=#d5e8d4;strokeColor=#82b366;" parent="1" vertex="1">
          <mxGeometry x="198" y="1083" width="172" height="200" as="geometry" />
        </mxCell>
        <mxCell id="Wlz0abQoxIl_LB6TaBgo-22" value="阅读第&#xa;四，第五章" style="shape=step;perimeter=stepPerimeter;fixedSize=1;points=[];fontSize=20;fillColor=#d5e8d4;strokeColor=#82b366;" parent="1" vertex="1">
          <mxGeometry x="360" y="1083" width="154" height="200" as="geometry" />
        </mxCell>
        <mxCell id="Wlz0abQoxIl_LB6TaBgo-23" value="一次最多两个线程" style="text;html=1;strokeColor=none;fillColor=none;align=center;verticalAlign=middle;whiteSpace=wrap;rounded=0;fontSize=20;" parent="1" vertex="1">
          <mxGeometry x="600" y="85" width="170" height="40" as="geometry" />
        </mxCell>
        <mxCell id="Wlz0abQoxIl_LB6TaBgo-24" value="输出读书笔记" style="shape=step;perimeter=stepPerimeter;fixedSize=1;points=[];fontSize=20;fillColor=#d5e8d4;strokeColor=#82b366;" parent="1" vertex="1">
          <mxGeometry x="500" y="1083" width="172" height="200" as="geometry" />
        </mxCell>
        <mxCell id="Wlz0abQoxIl_LB6TaBgo-12" value="读书笔记" style="shape=step;perimeter=stepPerimeter;fixedSize=1;points=[];fontSize=20;" parent="1" vertex="1">
          <mxGeometry x="940" y="192" width="154" height="200" as="geometry" />
        </mxCell>
        <mxCell id="Wlz0abQoxIl_LB6TaBgo-11" value="阅读网络是&#xa;怎样连接的第三章" style="shape=step;perimeter=stepPerimeter;fixedSize=1;points=[];fontSize=20;" parent="1" vertex="1">
          <mxGeometry x="730" y="192" width="222" height="200" as="geometry" />
        </mxCell>
        <mxCell id="DJbt_IODPc80AAWURKYm-1" value="做多模式请求&#xa;实验，并弄&#xa;清楚非同步任&#xa;务创建的&#xa;多种方法，&#xa;输出视频" style="shape=step;perimeter=stepPerimeter;fixedSize=1;points=[];fontSize=20;fillColor=#d5e8d4;strokeColor=#82b366;" parent="1" vertex="1">
          <mxGeometry x="660" y="1083" width="172" height="200" as="geometry" />
        </mxCell>
        <mxCell id="sbeo2GzU9574gHaIeoFa-66" value="julia贝&#xa;叶斯统计学&#xa;课程，出一期&#xa;视频" style="shape=step;perimeter=stepPerimeter;fixedSize=1;points=[];whiteSpace=wrap;fontSize=20;fillColor=#ffe6cc;strokeColor=#d79b00;" vertex="1" parent="1">
          <mxGeometry x="10" y="601" width="190" height="200" as="geometry" />
        </mxCell>
        <mxCell id="sbeo2GzU9574gHaIeoFa-67" value="julia构造dnn&#xa;出一期研究&#xa;视频" style="shape=step;perimeter=stepPerimeter;fixedSize=1;points=[];fontSize=20;" vertex="1" parent="1">
          <mxGeometry x="188" y="601" width="182" height="200" as="geometry" />
        </mxCell>
        <mxCell id="sbeo2GzU9574gHaIeoFa-68" value="研究selenium，&#xa;出一期自动化&#xa;教程" style="shape=step;perimeter=stepPerimeter;fixedSize=1;points=[];fontSize=20;" vertex="1" parent="1">
          <mxGeometry x="360" y="601" width="192" height="200" as="geometry" />
        </mxCell>
        <mxCell id="sbeo2GzU9574gHaIeoFa-69" value="研究python的&#xa;logger,和&#xa;自动化视频耦合&#xa;，出一期视频&#xa;" style="shape=step;perimeter=stepPerimeter;fixedSize=1;points=[];whiteSpace=wrap;fontSize=20;" vertex="1" parent="1">
          <mxGeometry x="540" y="601" width="190" height="200" as="geometry" />
        </mxCell>
        <mxCell id="sbeo2GzU9574gHaIeoFa-73" value="在虚拟机上&#xa;部署&#xa;spark+scala&#xa;环境，出一期&#xa;视频&#xa;&#xa;" style="shape=step;perimeter=stepPerimeter;fixedSize=1;points=[];whiteSpace=wrap;fontSize=20;" vertex="1" parent="1">
          <mxGeometry x="720" y="600" width="190" height="200" as="geometry" />
        </mxCell>
        <mxCell id="sbeo2GzU9574gHaIeoFa-74" value="&lt;span style=&quot;font-size: 24px&quot;&gt;工作の充电&lt;/span&gt;" style="rounded=1;whiteSpace=wrap;html=1;" vertex="1" parent="1">
          <mxGeometry x="10" y="440" width="190" height="110" as="geometry" />
        </mxCell>
        <mxCell id="sbeo2GzU9574gHaIeoFa-77" style="edgeStyle=orthogonalEdgeStyle;rounded=0;orthogonalLoop=1;jettySize=auto;html=1;exitX=0.5;exitY=1;exitDx=0;exitDy=0;" edge="1" parent="1">
          <mxGeometry relative="1" as="geometry">
            <mxPoint x="110" y="550" as="sourcePoint" />
            <mxPoint x="296.00000000000045" y="590" as="targetPoint" />
          </mxGeometry>
        </mxCell>
        <mxCell id="sbeo2GzU9574gHaIeoFa-78" value="部署kali&#xa;虚拟机" style="shape=step;perimeter=stepPerimeter;fixedSize=1;points=[];fontSize=20;" vertex="1" parent="1">
          <mxGeometry x="1080" y="192" width="154" height="200" as="geometry" />
        </mxCell>
        <mxCell id="sbeo2GzU9574gHaIeoFa-79" value="黑帽python&#xa;前三章" style="shape=step;perimeter=stepPerimeter;fixedSize=1;points=[];fontSize=20;" vertex="1" parent="1">
          <mxGeometry x="1220" y="192" width="154" height="200" as="geometry" />
        </mxCell>
        <mxCell id="sbeo2GzU9574gHaIeoFa-80" value="读grokking &#xa;algorithm的dp，&#xa;贪婪部分，出&#xa;一期视频&#xa;" style="shape=step;perimeter=stepPerimeter;fixedSize=1;points=[];whiteSpace=wrap;fontSize=20;" vertex="1" parent="1">
          <mxGeometry x="900" y="600" width="190" height="200" as="geometry" />
        </mxCell>
        <mxCell id="sbeo2GzU9574gHaIeoFa-81" value="阅读Working &#xa;With Branches，&#xa;出一期视频教程" style="shape=step;perimeter=stepPerimeter;fixedSize=1;points=[];whiteSpace=wrap;fontSize=20;" vertex="1" parent="1">
          <mxGeometry x="1080" y="600" width="190" height="200" as="geometry" />
        </mxCell>
        <mxCell id="sbeo2GzU9574gHaIeoFa-82" value="阅读Algorithms &#xa;for Optimization&#xa;出一期视频并&#xa;附带julia代码" style="shape=step;perimeter=stepPerimeter;fixedSize=1;points=[];whiteSpace=wrap;fontSize=20;" vertex="1" parent="1">
          <mxGeometry x="1260" y="600" width="190" height="200" as="geometry" />
        </mxCell>
      </root>
    </mxGraphModel>
  </diagram>
</mxfile>
